<?xml version="1.0" encoding="UTF-8"?>
<svg version="1.1" xmlns="http://www.w3.org/2000/svg" width="90" height="90">
<path d="M0 0 C1.65 0 3.3 0 5 0 C4.773125 1.299375 4.54625 2.59875 4.3125 3.9375 C3.37263938 13.06554024 7.44886116 19.58351951 12.8984375 26.66796875 C16.47452644 30.63623102 19.22189424 31.83682198 24.66015625 32.15625 C27.11770655 32.18390176 29.54649156 32.13328919 32 32 C32 33.98 32 35.96 32 38 C30.98679688 38.08636719 29.97359375 38.17273437 28.9296875 38.26171875 C20.75129646 38.78240143 20.75129646 38.78240143 13.375 41.8125 C7.39297917 49.84100164 5.21776841 59.12123319 5 69 C3.35 69 1.7 69 0 69 C-0.3403125 67.1746875 -0.3403125 67.1746875 -0.6875 65.3125 C-3.66907449 52.05289639 -3.66907449 52.05289639 -12 42 C-18.39403582 38.78014625 -24.96338094 37.13783627 -32 36 C-32 34.68 -32 33.36 -32 32 C-30.84242187 31.90203125 -29.68484375 31.8040625 -28.4921875 31.703125 C-26.95303881 31.55296415 -25.41398068 31.40187309 -23.875 31.25 C-23.11445313 31.188125 -22.35390625 31.12625 -21.5703125 31.0625 C-15.64389801 30.44942264 -11.52928944 28.81799245 -7.42578125 24.24609375 C-2.8411882 16.79814084 -0.95863358 8.62770226 0 0 Z " fill="#FF9170" transform="translate(43,10)"/>
</svg>
